<?xml version="1.0" encoding="UTF-8"?>
<!DOCTYPE svg PUBLIC "-//W3C//DTD SVG 1.1//EN" "http://www.w3.org/Graphics/SVG/1.1/DTD/svg11.dtd">
<svg version="1.1" xmlns="http://www.w3.org/2000/svg" xmlns:xlink="http://www.w3.org/1999/xlink" x="0px" y="0px" width="30" height="30" viewBox="0, 0, 30, 30">
  <g id="Sombra">
    <path d="M17.093,16.776 C16.747,18.943 15.25,20.698 13.829,20.698 C12.561,20.698 11.908,19.802 11.908,18.382 C11.908,15.506 13.905,13.078 16.44,13.078 C16.901,13.078 17.323,13.152 17.631,13.227 L17.093,16.776 z M20.357,26.526 C18.821,27.273 16.709,27.684 14.75,27.684 C9.028,27.684 4.957,24.172 4.957,17.897 C4.957,10.724 10.065,6.279 15.979,6.279 C21.932,6.279 25.158,10.014 25.158,14.908 C25.158,19.241 23.084,21.296 21.433,21.221 C20.357,21.184 20.089,20.175 20.473,17.971 L21.625,11.023 C20.665,10.537 18.744,10.126 17.055,10.126 C11.524,10.126 8.03,14.236 8.03,18.83 C8.03,21.894 9.873,23.724 12.331,23.724 C14.405,23.724 16.095,22.716 17.323,20.848 L17.4,20.848 C17.592,22.79 18.898,23.724 20.703,23.724 C24.851,23.724 28,20.287 28,14.796 C28,8.52 23.161,4 16.363,4 C7.722,4 2,10.612 2,18.233 C2,25.555 7.607,30 13.982,30 C16.747,30 18.744,29.664 21.049,28.655 L20.357,26.526 z" fill="#000000" opacity="0.605"/>
  </g>
  <g id="Capa">
    <path d="M17.093,14.776 C16.747,16.943 15.25,18.698 13.829,18.698 C12.561,18.698 11.908,17.802 11.908,16.382 C11.908,13.506 13.905,11.078 16.44,11.078 C16.901,11.078 17.323,11.152 17.631,11.227 L17.093,14.776 z M20.357,24.526 C18.821,25.273 16.709,25.684 14.75,25.684 C9.028,25.684 4.957,22.172 4.957,15.897 C4.957,8.724 10.065,4.279 15.979,4.279 C21.932,4.279 25.158,8.014 25.158,12.908 C25.158,17.241 23.084,19.296 21.433,19.221 C20.357,19.184 20.089,18.175 20.473,15.971 L21.625,9.023 C20.665,8.537 18.744,8.126 17.055,8.126 C11.524,8.126 8.03,12.236 8.03,16.83 C8.03,19.894 9.873,21.724 12.331,21.724 C14.405,21.724 16.095,20.716 17.323,18.848 L17.4,18.848 C17.592,20.79 18.898,21.724 20.703,21.724 C24.851,21.724 28,18.287 28,12.796 C28,6.52 23.161,2 16.363,2 C7.722,2 2,8.612 2,16.233 C2,23.555 7.607,28 13.982,28 C16.747,28 18.744,27.664 21.049,26.655 L20.357,24.526 z" fill="url(#Gradient_1)"/>
  </g>
  <defs>
    <linearGradient id="Gradient_1" gradientUnits="userSpaceOnUse" x1="15" y1="2" x2="15" y2="28">
      <stop offset="0" stop-color="#A6A6A6"/>
      <stop offset="1" stop-color="#FFFFFF"/>
    </linearGradient>
  </defs>
</svg>
