<?xml version="1.0" encoding="UTF-8"?>
<!DOCTYPE svg PUBLIC "-//W3C//DTD SVG 1.1//EN" "http://www.w3.org/Graphics/SVG/1.1/DTD/svg11.dtd">
<svg version="1.1" xmlns="http://www.w3.org/2000/svg" xmlns:xlink="http://www.w3.org/1999/xlink" x="0px" y="0px" width="30" height="30" viewBox="0, 0, 30, 30">
  <g id="Sombra">
    <path d="M27.428,19 C26.662,19.797 25.42,19.797 24.655,19 L14.955,9.136 L5.349,18.971 C4.583,19.768 3.341,19.768 2.575,18.971 C1.809,18.172 1.809,16.881 2.575,16.083 L13.608,4.598 C14.376,3.801 15.618,3.801 16.384,4.598 C16.402,4.616 16.407,4.64 16.423,4.659 L22.002,10.464 L22.002,6.698 C22.002,5.824 22.68,5.116 23.52,5.116 C24.358,5.116 25.038,5.824 25.038,6.698 L25.038,13.31 C25.038,13.407 25.026,13.502 25.011,13.594 L27.429,16.112 C28.194,16.91 28.194,18.203 27.428,19 z M24.022,20.658 L24.022,30 L17.039,30 L17.039,22.736 L13.048,22.736 L13.048,30 L6.064,30 L6.064,20.658 L15.043,11.31 L24.022,20.658 z" fill="#000000" opacity="0.601"/>
  </g>
  <g id="Capa">
    <path d="M27.428,17 C26.662,17.797 25.42,17.797 24.655,17 L14.955,7.136 L5.349,16.971 C4.583,17.768 3.341,17.768 2.575,16.971 C1.809,16.172 1.809,14.881 2.575,14.083 L13.608,2.598 C14.376,1.801 15.618,1.801 16.384,2.598 C16.402,2.616 16.407,2.64 16.423,2.659 L22.002,8.464 L22.002,4.698 C22.002,3.824 22.68,3.116 23.52,3.116 C24.358,3.116 25.038,3.824 25.038,4.698 L25.038,11.31 C25.038,11.407 25.026,11.502 25.011,11.594 L27.429,14.112 C28.194,14.91 28.194,16.203 27.428,17 z M24.022,18.658 L24.022,28 L17.039,28 L17.039,20.736 L13.048,20.736 L13.048,28 L6.064,28 L6.064,18.658 L15.043,9.31 L24.022,18.658 z" fill="url(#Gradient_1)"/>
  </g>
  <defs>
    <linearGradient id="Gradient_1" gradientUnits="userSpaceOnUse" x1="14.998" y1="2" x2="14.998" y2="28">
      <stop offset="0" stop-color="#A6A6A6"/>
      <stop offset="1" stop-color="#FFFFFF"/>
    </linearGradient>
  </defs>
</svg>
