<?xml version="1.0" encoding="UTF-8"?>
<!DOCTYPE svg PUBLIC "-//W3C//DTD SVG 1.1//EN" "http://www.w3.org/Graphics/SVG/1.1/DTD/svg11.dtd">
<svg version="1.1" xmlns="http://www.w3.org/2000/svg" xmlns:xlink="http://www.w3.org/1999/xlink" x="0px" y="0px" width="30" height="30" viewBox="0, 0, 30, 30">
  <g id="Sombra">
    <path d="M15,30 C7.82,30 2,24.18 2,17 C2,9.82 7.82,4 15,4 C22.181,4 28,9.82 28,17 C28,24.18 22.181,30 15,30 z M17.942,8.854 C17.453,8.5 16.894,8.322 16.264,8.322 C15.495,8.322 14.81,8.584 14.206,9.107 C13.603,9.63 13.302,10.228 13.302,10.901 C13.302,11.504 13.542,12.014 14.023,12.431 C14.503,12.847 15.041,13.055 15.635,13.055 C16.51,13.055 17.234,12.789 17.811,12.257 C18.387,11.726 18.676,11.052 18.676,10.237 C18.677,9.67 18.433,9.209 17.942,8.854 z M18.912,22.546 C18.581,22.759 18.319,22.909 18.126,22.997 C17.533,23.299 17.043,23.45 16.658,23.45 C16.292,23.45 16.016,23.272 15.833,22.918 C15.65,22.564 15.558,22.147 15.558,21.669 C15.558,21.386 15.583,21.119 15.636,20.871 L17.157,14.809 L12.988,14.809 C12.587,15.908 12.29,16.786 12.097,17.441 C11.503,19.444 11.206,21.056 11.206,22.279 C11.206,23.2 11.559,24.019 12.268,24.738 C12.975,25.456 13.784,25.815 14.692,25.815 C15.532,25.815 16.624,25.531 17.97,24.963 C18.406,24.786 18.973,24.511 19.674,24.139 L18.912,22.546 z" fill="#000000" opacity="0.601"/>
  </g>
  <g id="Capa">
    <path d="M15,28 C7.82,28 2,22.18 2,15 C2,7.82 7.82,2 15,2 C22.181,2 28,7.82 28,15 C28,22.18 22.181,28 15,28 z M17.942,6.854 C17.453,6.5 16.894,6.322 16.264,6.322 C15.495,6.322 14.81,6.584 14.206,7.107 C13.603,7.63 13.302,8.228 13.302,8.901 C13.302,9.504 13.542,10.014 14.023,10.431 C14.503,10.847 15.041,11.055 15.635,11.055 C16.51,11.055 17.234,10.789 17.811,10.257 C18.387,9.726 18.676,9.052 18.676,8.237 C18.677,7.67 18.433,7.209 17.942,6.854 z M18.912,20.546 C18.581,20.759 18.319,20.909 18.126,20.997 C17.533,21.299 17.043,21.45 16.658,21.45 C16.292,21.45 16.016,21.272 15.833,20.918 C15.65,20.564 15.558,20.147 15.558,19.669 C15.558,19.386 15.583,19.119 15.636,18.871 L17.157,12.809 L12.988,12.809 C12.587,13.908 12.29,14.786 12.097,15.441 C11.503,17.444 11.206,19.056 11.206,20.279 C11.206,21.2 11.559,22.019 12.268,22.738 C12.975,23.456 13.784,23.815 14.692,23.815 C15.532,23.815 16.624,23.531 17.97,22.963 C18.406,22.786 18.973,22.511 19.674,22.139 L18.912,20.546 z" fill="url(#Gradient_1)"/>
  </g>
  <defs>
    <linearGradient id="Gradient_1" gradientUnits="userSpaceOnUse" x1="15" y1="2" x2="15" y2="28">
      <stop offset="0" stop-color="#A6A6A6"/>
      <stop offset="1" stop-color="#FFFFFF"/>
    </linearGradient>
  </defs>
</svg>
