<?xml version="1.0" encoding="UTF-8"?>
<!DOCTYPE svg PUBLIC "-//W3C//DTD SVG 1.1//EN" "http://www.w3.org/Graphics/SVG/1.1/DTD/svg11.dtd">
<svg version="1.1" xmlns="http://www.w3.org/2000/svg" xmlns:xlink="http://www.w3.org/1999/xlink" x="0px" y="0px" width="200" height="64" viewBox="0, 0, 200, 64">
  <g id="Sombra">
    <path d="M25.673,37.542 L28.373,45.448 L36.944,45.448 L26.036,14.645 L15.648,14.645 L5,45.448 L13.155,45.448 L15.648,37.542 L25.673,37.542 z M16.791,32.332 L18.868,25.797 C19.44,24.014 19.959,21.683 20.478,19.855 L20.582,19.855 C21.102,21.683 21.725,23.968 22.348,25.797 L24.53,32.332 L16.791,32.332 z M41.514,45.448 L49.41,45.448 L49.41,13 L41.514,13 L41.514,45.448 z M78.237,36.491 C78.341,35.988 78.496,34.937 78.496,33.749 C78.496,28.219 75.38,22.597 67.173,22.597 C58.343,22.597 54.344,28.859 54.344,34.526 C54.344,41.518 59.278,45.905 67.9,45.905 C71.329,45.905 74.497,45.448 77.094,44.489 L76.055,39.781 C73.926,40.421 71.744,40.741 69.043,40.741 C65.355,40.741 62.083,39.37 61.875,36.491 L78.237,36.491 z M61.823,31.738 C62.031,29.91 63.382,27.213 66.706,27.213 C70.342,27.213 71.173,30.047 71.173,31.738 L61.823,31.738 z M79.795,23.1 L88.209,34.069 L79.587,45.448 L88.261,45.448 L90.651,41.427 C91.274,40.33 91.949,39.233 92.572,38.045 L92.728,38.045 C93.352,39.187 93.975,40.33 94.702,41.427 L97.247,45.448 L106.181,45.448 L97.715,33.749 L106.077,23.1 L97.507,23.1 L95.273,26.756 C94.598,27.853 93.975,28.95 93.3,30.184 L93.196,30.184 C92.521,29.087 91.845,27.99 91.118,26.848 L88.625,23.1 L79.795,23.1 z M130.853,36.491 C130.957,35.988 131.113,34.937 131.113,33.749 C131.113,28.219 127.996,22.597 119.79,22.597 C110.96,22.597 106.96,28.859 106.96,34.526 C106.96,41.518 111.894,45.905 120.517,45.905 C123.945,45.905 127.113,45.448 129.71,44.489 L128.671,39.781 C126.542,40.421 124.36,40.741 121.659,40.741 C117.972,40.741 114.699,39.37 114.492,36.491 L130.853,36.491 z M114.44,31.738 C114.647,29.91 115.998,27.213 119.322,27.213 C122.958,27.213 123.789,30.047 123.789,31.738 L114.44,31.738 z M135.839,45.448 L143.734,45.448 L143.734,13 L135.839,13 L135.839,45.448 z M174.172,29.773 C174.172,26.436 174.276,24.563 174.379,23.1 L167.523,23.1 L167.264,25.797 L167.16,25.797 C165.861,23.923 163.68,22.597 160.2,22.597 C153.915,22.597 148.669,27.168 148.669,34.388 C148.669,40.787 153.136,45.265 159.42,45.265 C162.329,45.265 164.77,44.214 166.277,42.386 L166.381,42.386 L166.381,43.803 C166.381,47.962 163.524,49.699 159.784,49.699 C156.771,49.699 154.019,48.83 152.408,48.008 L150.85,53.309 C153.136,54.406 156.616,55 159.992,55 C163.732,55 167.523,54.36 170.276,52.258 C173.185,50.019 174.172,46.499 174.172,42.203 L174.172,29.773 z M166.277,35.485 C166.277,36.079 166.225,36.811 166.017,37.359 C165.498,38.959 163.887,40.147 161.81,40.147 C158.537,40.147 156.668,37.542 156.668,34.206 C156.668,30.138 158.953,27.853 161.862,27.853 C164.043,27.853 165.549,29.087 166.121,30.915 C166.225,31.326 166.277,31.783 166.277,32.195 L166.277,35.485 z M181.599,18.941 L181.599,23.1 L178.223,23.1 L178.223,28.219 L181.599,28.219 L181.599,37.359 C181.599,40.513 182.326,42.661 183.781,43.986 C185.079,45.128 187.209,45.905 189.754,45.905 C191.935,45.905 193.857,45.631 194.844,45.311 L194.792,40.055 C194.065,40.193 193.546,40.238 192.455,40.238 C190.118,40.238 189.338,39.004 189.338,36.308 L189.338,28.219 L195,28.219 L195,23.1 L189.338,23.1 L189.338,17.067 L181.599,18.941 z" fill="#ABABAB"/>
  </g>
  <g id="Capa 1">
    <g>
      <path d="M25.673,35.542 L28.373,43.448 L36.944,43.448 L26.036,12.645 L15.648,12.645 L5,43.448 L13.155,43.448 L15.648,35.542 L25.673,35.542 z M16.791,30.332 L18.868,23.797 C19.44,22.014 19.959,19.683 20.478,17.855 L20.582,17.855 C21.102,19.683 21.725,21.968 22.348,23.797 L24.53,30.332 L16.791,30.332 z M41.514,43.448 L49.41,43.448 L49.41,11 L41.514,11 L41.514,43.448 z M78.237,34.491 C78.341,33.988 78.496,32.937 78.496,31.749 C78.496,26.219 75.38,20.597 67.173,20.597 C58.343,20.597 54.344,26.859 54.344,32.526 C54.344,39.518 59.278,43.905 67.9,43.905 C71.329,43.905 74.497,43.448 77.094,42.489 L76.055,37.781 C73.926,38.421 71.744,38.741 69.043,38.741 C65.355,38.741 62.083,37.37 61.875,34.491 L78.237,34.491 z M61.823,29.738 C62.031,27.91 63.382,25.213 66.706,25.213 C70.342,25.213 71.173,28.047 71.173,29.738 L61.823,29.738 z M79.795,21.1 L88.209,32.069 L79.587,43.448 L88.261,43.448 L90.651,39.427 C91.274,38.33 91.949,37.233 92.572,36.045 L92.728,36.045 C93.352,37.187 93.975,38.33 94.702,39.427 L97.247,43.448 L106.181,43.448 L97.715,31.749 L106.077,21.1 L97.507,21.1 L95.273,24.756 C94.598,25.853 93.975,26.95 93.3,28.184 L93.196,28.184 C92.521,27.087 91.845,25.99 91.118,24.848 L88.625,21.1 L79.795,21.1 z M130.853,34.491 C130.957,33.988 131.113,32.937 131.113,31.749 C131.113,26.219 127.996,20.597 119.79,20.597 C110.96,20.597 106.96,26.859 106.96,32.526 C106.96,39.518 111.894,43.905 120.517,43.905 C123.945,43.905 127.113,43.448 129.71,42.489 L128.671,37.781 C126.542,38.421 124.36,38.741 121.659,38.741 C117.972,38.741 114.699,37.37 114.492,34.491 L130.853,34.491 z M114.44,29.738 C114.647,27.91 115.998,25.213 119.322,25.213 C122.958,25.213 123.789,28.047 123.789,29.738 L114.44,29.738 z M135.839,43.448 L143.734,43.448 L143.734,11 L135.839,11 L135.839,43.448 z M174.172,27.773 C174.172,24.436 174.276,22.563 174.379,21.1 L167.523,21.1 L167.264,23.797 L167.16,23.797 C165.861,21.923 163.68,20.597 160.2,20.597 C153.915,20.597 148.669,25.168 148.669,32.388 C148.669,38.787 153.136,43.266 159.42,43.266 C162.329,43.266 164.77,42.214 166.277,40.386 L166.381,40.386 L166.381,41.803 C166.381,45.962 163.524,47.699 159.784,47.699 C156.771,47.699 154.019,46.83 152.408,46.008 L150.85,51.309 C153.136,52.406 156.616,53 159.992,53 C163.732,53 167.523,52.36 170.276,50.258 C173.185,48.019 174.172,44.499 174.172,40.203 L174.172,27.773 z M166.277,33.485 C166.277,34.079 166.225,34.811 166.017,35.359 C165.498,36.959 163.887,38.147 161.81,38.147 C158.537,38.147 156.668,35.542 156.668,32.206 C156.668,28.138 158.953,25.853 161.862,25.853 C164.043,25.853 165.549,27.087 166.121,28.915 C166.225,29.326 166.277,29.783 166.277,30.195 L166.277,33.485 z M181.599,16.941 L181.599,21.1 L178.223,21.1 L178.223,26.219 L181.599,26.219 L181.599,35.359 C181.599,38.513 182.326,40.661 183.781,41.986 C185.079,43.128 187.209,43.905 189.754,43.905 C191.935,43.905 193.857,43.631 194.844,43.311 L194.792,38.055 C194.065,38.193 193.546,38.238 192.455,38.238 C190.118,38.238 189.338,37.004 189.338,34.308 L189.338,26.219 L195,26.219 L195,21.1 L189.338,21.1 L189.338,15.067 L181.599,16.941 z" fill="url(#Gradient_1)"/>
      <path d="M25.673,35.542 L28.373,43.448 L36.944,43.448 L26.036,12.645 L15.648,12.645 L5,43.448 L13.155,43.448 L15.648,35.542 L25.673,35.542 z M16.791,30.332 L18.868,23.797 C19.44,22.014 19.959,19.683 20.478,17.855 L20.582,17.855 C21.102,19.683 21.725,21.968 22.348,23.797 L24.53,30.332 L16.791,30.332 z M41.514,43.448 L49.41,43.448 L49.41,11 L41.514,11 L41.514,43.448 z M78.237,34.491 C78.341,33.988 78.496,32.937 78.496,31.749 C78.496,26.219 75.38,20.597 67.173,20.597 C58.343,20.597 54.344,26.859 54.344,32.526 C54.344,39.518 59.278,43.905 67.9,43.905 C71.329,43.905 74.497,43.448 77.094,42.489 L76.055,37.781 C73.926,38.421 71.744,38.741 69.043,38.741 C65.355,38.741 62.083,37.37 61.875,34.491 L78.237,34.491 z M61.823,29.738 C62.031,27.91 63.382,25.213 66.706,25.213 C70.342,25.213 71.173,28.047 71.173,29.738 L61.823,29.738 z M79.795,21.1 L88.209,32.069 L79.587,43.448 L88.261,43.448 L90.651,39.427 C91.274,38.33 91.949,37.233 92.572,36.045 L92.728,36.045 C93.352,37.187 93.975,38.33 94.702,39.427 L97.247,43.448 L106.181,43.448 L97.715,31.749 L106.077,21.1 L97.507,21.1 L95.273,24.756 C94.598,25.853 93.975,26.95 93.3,28.184 L93.196,28.184 C92.521,27.087 91.845,25.99 91.118,24.848 L88.625,21.1 L79.795,21.1 z M130.853,34.491 C130.957,33.988 131.113,32.937 131.113,31.749 C131.113,26.219 127.996,20.597 119.79,20.597 C110.96,20.597 106.96,26.859 106.96,32.526 C106.96,39.518 111.894,43.905 120.517,43.905 C123.945,43.905 127.113,43.448 129.71,42.489 L128.671,37.781 C126.542,38.421 124.36,38.741 121.659,38.741 C117.972,38.741 114.699,37.37 114.492,34.491 L130.853,34.491 z M114.44,29.738 C114.647,27.91 115.998,25.213 119.322,25.213 C122.958,25.213 123.789,28.047 123.789,29.738 L114.44,29.738 z M135.839,43.448 L143.734,43.448 L143.734,11 L135.839,11 L135.839,43.448 z M174.172,27.773 C174.172,24.436 174.276,22.563 174.379,21.1 L167.523,21.1 L167.264,23.797 L167.16,23.797 C165.861,21.923 163.68,20.597 160.2,20.597 C153.915,20.597 148.669,25.168 148.669,32.388 C148.669,38.787 153.136,43.266 159.42,43.266 C162.329,43.266 164.77,42.214 166.277,40.386 L166.381,40.386 L166.381,41.803 C166.381,45.962 163.524,47.699 159.784,47.699 C156.771,47.699 154.019,46.83 152.408,46.008 L150.85,51.309 C153.136,52.406 156.616,53 159.992,53 C163.732,53 167.523,52.36 170.276,50.258 C173.185,48.019 174.172,44.499 174.172,40.203 L174.172,27.773 z M166.277,33.485 C166.277,34.079 166.225,34.811 166.017,35.359 C165.498,36.959 163.887,38.147 161.81,38.147 C158.537,38.147 156.668,35.542 156.668,32.206 C156.668,28.138 158.953,25.853 161.862,25.853 C164.043,25.853 165.549,27.087 166.121,28.915 C166.225,29.326 166.277,29.783 166.277,30.195 L166.277,33.485 z M181.599,16.941 L181.599,21.1 L178.223,21.1 L178.223,26.219 L181.599,26.219 L181.599,35.359 C181.599,38.513 182.326,40.661 183.781,41.986 C185.079,43.128 187.209,43.905 189.754,43.905 C191.935,43.905 193.857,43.631 194.844,43.311 L194.792,38.055 C194.065,38.193 193.546,38.238 192.455,38.238 C190.118,38.238 189.338,37.004 189.338,34.308 L189.338,26.219 L195,26.219 L195,21.1 L189.338,21.1 L189.338,15.067 L181.599,16.941 z" fill-opacity="0" stroke="#000000" stroke-width="1"/>
    </g>
  </g>
  <defs>
    <linearGradient id="Gradient_1" gradientUnits="userSpaceOnUse" x1="100" y1="11" x2="100" y2="53">
      <stop offset="0" stop-color="#FAFAFA"/>
      <stop offset="1" stop-color="#929292"/>
    </linearGradient>
  </defs>
</svg>
