<?xml version="1.0" encoding="UTF-8"?>
<!DOCTYPE svg PUBLIC "-//W3C//DTD SVG 1.1//EN" "http://www.w3.org/Graphics/SVG/1.1/DTD/svg11.dtd">
<svg version="1.1" xmlns="http://www.w3.org/2000/svg" xmlns:xlink="http://www.w3.org/1999/xlink" x="0px" y="0px" width="30" height="30" viewBox="0, 0, 30, 30">
  <g id="Sombra">
    <path d="M4.921,19.232 C5.725,19.273 6.268,19.475 6.82,19.082 C4.566,18.766 2.992,16.39 3.022,13.67 C3.12,13.67 3.217,13.67 3.314,13.67 C3.694,14.051 4.21,14.225 4.921,14.271 C4.921,14.222 4.921,14.171 4.921,14.122 C2.965,12.838 2.672,9.416 3.753,7.056 C3.851,7.056 3.947,7.056 4.045,7.056 C4.951,9.626 11.055,12.666 14.708,12.769 C14.274,9.552 15.792,7.168 18.068,6.304 C20.198,5.495 23.015,6.406 23.911,7.807 C25.097,7.38 26.195,6.823 27.27,6.454 C27.27,6.604 27.27,6.754 27.27,6.905 C26.999,7.252 26.943,7.735 26.686,8.108 C26.338,8.61 25.722,8.949 25.372,9.461 C25.42,9.461 25.469,9.461 25.518,9.461 C26.153,9.013 27.328,8.878 28,8.559 C28,8.659 28,8.76 28,8.86 C27.763,9.09 27.766,9.327 27.562,9.612 C27.169,10.16 25.583,11.101 25.371,11.566 C25.371,12.368 25.371,13.171 25.371,13.972 C24.998,14.602 25.172,15.618 24.933,16.378 C24.491,17.784 23.905,19.388 23.18,20.587 C20.518,24.992 14.466,29.531 7.112,27.502 C5.405,27.03 2.689,26.706 2,25.246 C2.146,25.246 2.292,25.246 2.438,25.246 C4.125,26.407 8.69,23.783 9.595,23.292 C9.595,23.241 9.595,23.192 9.595,23.142 C7.32,23.099 5.169,21.345 4.921,19.232 z" fill="#000000" opacity="0.601"/>
  </g>
  <g id="Capa">
    <path d="M4.921,17.232 C5.725,17.273 6.268,17.475 6.82,17.082 C4.566,16.766 2.992,14.39 3.022,11.67 C3.12,11.67 3.217,11.67 3.314,11.67 C3.694,12.051 4.21,12.225 4.921,12.271 C4.921,12.222 4.921,12.171 4.921,12.122 C2.965,10.838 2.672,7.416 3.753,5.056 C3.851,5.056 3.947,5.056 4.045,5.056 C4.951,7.626 11.055,10.666 14.708,10.769 C14.274,7.552 15.792,5.168 18.068,4.304 C20.198,3.495 23.015,4.406 23.911,5.807 C25.097,5.38 26.195,4.823 27.27,4.454 C27.27,4.604 27.27,4.754 27.27,4.905 C26.999,5.252 26.943,5.735 26.686,6.108 C26.338,6.61 25.722,6.949 25.372,7.461 C25.42,7.461 25.469,7.461 25.518,7.461 C26.153,7.013 27.328,6.878 28,6.559 C28,6.659 28,6.76 28,6.86 C27.763,7.09 27.766,7.327 27.562,7.612 C27.169,8.16 25.583,9.101 25.371,9.566 C24.998,12.602 25.172,13.618 24.933,14.378 C24.491,15.784 23.905,17.388 23.18,18.587 C20.518,22.992 14.466,27.531 7.112,25.502 C5.405,25.03 2.689,24.706 2,23.246 C2.146,23.246 2.292,23.246 2.438,23.246 C4.125,24.407 8.69,21.783 9.595,21.292 C9.595,21.241 9.595,21.192 9.595,21.142 C7.32,21.099 5.169,19.345 4.921,17.232 z" fill="url(#Gradient_1)"/>
  </g>
  <defs>
    <linearGradient id="Gradient_1" gradientUnits="userSpaceOnUse" x1="15" y1="4" x2="15" y2="26">
      <stop offset="0" stop-color="#A6A6A6"/>
      <stop offset="1" stop-color="#FFFFFF"/>
    </linearGradient>
  </defs>
</svg>
