<?xml version="1.0" encoding="UTF-8"?>
<!DOCTYPE svg PUBLIC "-//W3C//DTD SVG 1.1//EN" "http://www.w3.org/Graphics/SVG/1.1/DTD/svg11.dtd">
<svg version="1.1" xmlns="http://www.w3.org/2000/svg" xmlns:xlink="http://www.w3.org/1999/xlink" x="0px" y="0px" width="30" height="30" viewBox="0, 0, 30, 30">
  <g id="Sombra">
    <path d="M22.431,30 L7.568,30 C4.493,30 2,27.506 2,24.431 L2,9.568 C2,6.493 4.493,4 7.568,4 L22.43,4 C25.506,4 28,6.493 28,9.568 L28,24.43 C28,27.506 25.506,30 22.431,30 z M25.958,11.438 C25.958,8.395 23.491,5.929 20.449,5.929 L9.487,5.929 C6.445,5.929 3.978,8.395 3.978,11.438 L3.978,22.4 C3.978,25.442 6.444,27.909 9.487,27.909 L20.449,27.909 C23.491,27.909 25.958,25.442 25.958,22.4 L25.958,11.438 z M8.021,8.952 L22.928,17.067 L8.021,24.963 L8.021,8.952 z" fill="#000000" opacity="0.608"/>
  </g>
  <g id="Capa">
    <path d="M22.431,28 L7.568,28 C4.493,28 2,25.506 2,22.431 L2,7.568 C2,4.493 4.493,2 7.568,2 L22.43,2 C25.506,2 28,4.493 28,7.568 L28,22.43 C28,25.506 25.506,28 22.431,28 z M25.958,9.438 C25.958,6.395 23.491,3.929 20.449,3.929 L9.487,3.929 C6.445,3.929 3.978,6.395 3.978,9.438 L3.978,20.4 C3.978,23.442 6.444,25.909 9.487,25.909 L20.449,25.909 C23.491,25.909 25.958,23.442 25.958,20.4 L25.958,9.438 z M8.021,6.952 L22.928,15.067 L8.021,22.963 L8.021,6.952 z" fill="url(#Gradient_1)"/>
  </g>
  <defs>
    <linearGradient id="Gradient_1" gradientUnits="userSpaceOnUse" x1="15" y1="2" x2="15" y2="28">
      <stop offset="0" stop-color="#A6A6A6"/>
      <stop offset="1" stop-color="#FFFFFF"/>
    </linearGradient>
  </defs>
</svg>
